<svg width="380" height="380" viewBox="0 0 380 380" xmlns="http://www.w3.org/2000/svg" role="img">
<title>Kall Konnect app icon</title>
<desc>The split-circle icon with two figures on a call, both smiling, one with a speech bubble showing pulsing dots.</desc>
<defs>
<clipPath id="lcl"><circle cx="190" cy="190" r="150"/></clipPath>
</defs>
<circle cx="190" cy="190" r="150" fill="#fff5eb"/>
<g clip-path="url(#lcl)">
<polygon points="40,40 340,40 340,340" fill="#FFB088"/>
<polygon points="40,40 40,340 340,340" fill="#fff5eb"/>
<g>
<ellipse cx="120" cy="300" rx="56" ry="44" fill="#FF7A50"/>
<path d="M 92 286 Q 68 258 74 218 Q 76 206 88 204 Q 100 206 98 218 Q 92 250 108 272 Z" fill="#FFCBA8"/>
<circle cx="88" cy="210" r="14" fill="#FFCBA8"/>
<rect x="76" y="194" width="16" height="26" rx="7" fill="#3A3A3A" transform="rotate(-18 84 207)"/>
<circle cx="120" cy="228" r="40" fill="#FFCBA8"/>
<path d="M 82 228 A 38 38 0 0 1 158 228 L 158 210 A 38 38 0 0 0 82 210 Z" fill="#7A4A32"/>
<path d="M 100 232 Q 106 227 113 231" stroke="#7A4A32" stroke-width="3" fill="none" stroke-linecap="round"/>
<path d="M 127 231 Q 134 227 140 232" stroke="#7A4A32" stroke-width="3" fill="none" stroke-linecap="round"/>
<ellipse cx="107" cy="240" rx="4.5" ry="5" fill="#2A2A2A"/>
<ellipse cx="133" cy="240" rx="4.5" ry="5" fill="#2A2A2A"/>
<path d="M 108 256 Q 120 262 132 256" stroke="#B5533C" stroke-width="4" fill="none" stroke-linecap="round"/>
</g>
<g>
<ellipse cx="260" cy="170" rx="56" ry="44" fill="#3E8C7F"/>
<path d="M 232 156 Q 208 128 214 88 Q 216 76 228 74 Q 240 76 238 88 Q 232 120 248 142 Z" fill="#7A5138"/>
<circle cx="228" cy="80" r="14" fill="#7A5138"/>
<rect x="216" y="64" width="16" height="26" rx="7" fill="#2A2A2A" transform="rotate(-18 224 77)"/>
<circle cx="260" cy="98" r="40" fill="#7A5138"/>
<path d="M 222 98 A 38 38 0 0 1 298 98 L 298 80 A 38 38 0 0 0 222 80 Z" fill="#241812"/>
<path d="M 240 102 Q 246 97 253 101" stroke="#241812" stroke-width="3" fill="none" stroke-linecap="round"/>
<path d="M 267 101 Q 274 97 280 102" stroke="#241812" stroke-width="3" fill="none" stroke-linecap="round"/>
<ellipse cx="247" cy="110" rx="4.5" ry="5" fill="#1A1108"/>
<ellipse cx="273" cy="110" rx="4.5" ry="5" fill="#1A1108"/>
<path d="M 248 126 Q 260 132 272 126" stroke="#3D2415" stroke-width="4" fill="none" stroke-linecap="round"/>
</g>
<g>
<rect x="112" y="148" width="66" height="36" rx="16" fill="#fff5eb" stroke="#FF9670" stroke-width="3"/>
<path d="M 118 178 L 108 192 L 132 182 Z" fill="#fff5eb" stroke="#FF9670" stroke-width="3"/>
<circle cx="132" cy="166" r="3" fill="#FF9670"/>
<circle cx="145" cy="166" r="3" fill="#FF9670"/>
<circle cx="158" cy="166" r="3" fill="#FF9670"/>
</g>
</g>
<circle cx="190" cy="190" r="150" fill="none" stroke="#FF9670" stroke-width="6"/>
</svg>
